<svg width="22" height="16" viewBox="0 0 22 16" fill="none" xmlns="http://www.w3.org/2000/svg">
<rect x="0.5" y="0.5" width="21" height="15" rx="2" fill="white"/>
<mask id="mask0_906_183" style="mask-type:luminance" maskUnits="userSpaceOnUse" x="0" y="0" width="22" height="16">
<rect x="0.5" y="0.5" width="21" height="15" rx="2" fill="white"/>
</mask>
<g mask="url(#mask0_906_183)">
<path fill-rule="evenodd" clip-rule="evenodd" d="M0.5 4.5H21.5V0.5H0.5V4.5Z" fill="#DD172C"/>
<path fill-rule="evenodd" clip-rule="evenodd" d="M0.5 15.5H21.5V11.5H0.5V15.5Z" fill="#DD172C"/>
<path fill-rule="evenodd" clip-rule="evenodd" d="M0.5 11.5H21.5V4.5H0.5V11.5Z" fill="#FFD133"/>
<path fill-rule="evenodd" clip-rule="evenodd" d="M6 7.5H7V8H6V7.5Z" fill="#FFEDB1"/>
<path d="M5.14235 7.69435C5.12616 7.50001 5.27952 7.33333 5.47453 7.33333H6.52547C6.72048 7.33333 6.87384 7.50001 6.85765 7.69435L6.75086 8.97577C6.71832 9.36629 6.39187 9.66667 6 9.66667C5.60813 9.66667 5.28168 9.36629 5.24914 8.97577L5.14235 7.69435Z" stroke="#A41517" stroke-width="0.666667"/>
<path fill-rule="evenodd" clip-rule="evenodd" d="M5 8H7V8.5H6.5L6 9.5L5.5 8.5H5V8Z" fill="#A41517"/>
<rect x="3.5" y="6.5" width="1" height="3.5" rx="0.5" fill="#A41517"/>
<rect x="7.5" y="6.5" width="1" height="3.5" rx="0.5" fill="#A41517"/>
<path d="M5 6.3C5 5.85817 5.35817 5.5 5.8 5.5H6.2C6.64183 5.5 7 5.85817 7 6.3C7 6.41046 6.91046 6.5 6.8 6.5H5.2C5.08954 6.5 5 6.41046 5 6.3Z" fill="#A41517"/>
</g>
</svg>
